<?xml version="1.0" encoding="UTF-8" standalone="no"?>
<!-- Created with Inkscape (http://www.inkscape.org/) -->

<svg
   xmlns:dc="http://purl.org/dc/elements/1.1/"
   xmlns:cc="http://creativecommons.org/ns#"
   xmlns:rdf="http://www.w3.org/1999/02/22-rdf-syntax-ns#"
   xmlns:svg="http://www.w3.org/2000/svg"
   xmlns="http://www.w3.org/2000/svg"
   xmlns:sodipodi="http://sodipodi.sourceforge.net/DTD/sodipodi-0.dtd"
   xmlns:inkscape="http://www.inkscape.org/namespaces/inkscape"
   width="400"
   height="400"
   id="svg2"
   version="1.1"
   inkscape:version="0.48.4 r9939"
   sodipodi:docname="Sprite head400x400.png">
  <defs
     id="defs4" />
  <sodipodi:namedview
     id="base"
     pagecolor="#ffffff"
     bordercolor="#666666"
     borderopacity="1.0"
     inkscape:pageopacity="0.0"
     inkscape:pageshadow="2"
     inkscape:zoom="0.7"
     inkscape:cx="223.14795"
     inkscape:cy="125.37282"
     inkscape:document-units="px"
     inkscape:current-layer="layer1"
     showgrid="false"
     width="64px"
     inkscape:window-width="1358"
     inkscape:window-height="741"
     inkscape:window-x="0"
     inkscape:window-y="1"
     inkscape:window-maximized="1" />
  <metadata
     id="metadata7">
    <rdf:RDF>
      <cc:Work
         rdf:about="">
        <dc:format>image/svg+xml</dc:format>
        <dc:type
           rdf:resource="http://purl.org/dc/dcmitype/StillImage" />
        <dc:title></dc:title>
      </cc:Work>
    </rdf:RDF>
  </metadata>
  <g
     inkscape:label="Layer 1"
     inkscape:groupmode="layer"
     id="layer1"
     transform="translate(0,-652.36218)">
    <path
       sodipodi:type="arc"
       style="fill:#d2691e;stroke:#e9967a"
       id="path2985"
       sodipodi:cx="363.65491"
       sodipodi:cy="564.4585"
       sodipodi:rx="191.92899"
       sodipodi:ry="176.7767"
       d="m 555.58389,564.4585 a 191.92899,176.7767 0 1 1 -383.85797,0 191.92899,176.7767 0 1 1 383.85797,0 z"
       transform="matrix(0.68217247,0,0,0.79517783,-39.59038,441.5095)" />
    <path
       sodipodi:type="arc"
       style="fill:#000000;stroke:#e9967a"
       id="path2987"
       sodipodi:cx="241.42645"
       sodipodi:cy="435.15897"
       sodipodi:rx="75.761444"
       sodipodi:ry="63.63961"
       d="m 317.1879,435.15897 a 75.761444,63.63961 0 1 1 -151.52289,0 75.761444,63.63961 0 1 1 151.52289,0 z"
       transform="matrix(0.68217247,0,0,0.79517783,-53.876094,432.93807)" />
    <path
       sodipodi:type="arc"
       style="fill:#000000;stroke:#e9967a"
       id="path2989"
       sodipodi:cx="531.34021"
       sodipodi:cy="436.16913"
       sodipodi:rx="64.649765"
       sodipodi:ry="66.670067"
       d="m 595.98997,436.16913 a 64.649765,66.670067 0 1 1 -129.29953,0 64.649765,66.670067 0 1 1 129.29953,0 z"
       transform="matrix(0.68217247,0,0,0.79517783,-39.59038,441.5095)" />
    <path
       style="fill:#000000;stroke:#000000;stroke-width:0.73651093px;stroke-linecap:butt;stroke-linejoin:miter;stroke-opacity:1"
       d="m 333.7393,849.94793 c -65.95202,8.54202 -173.09534,-35.47147 -250.847508,0.22622 -13.401906,-1.02054 -13.573609,37.47107 -8.269161,57.83357 82.922609,-16.94707 177.115199,-13.09741 259.793959,-0.22623 7.18296,-9.78629 9.92942,-36.27708 -0.67729,-57.8342 z"
       id="path2993"
       inkscape:connector-curvature="0"
       sodipodi:nodetypes="ccccc" />
    <path
       style="fill:#fffafa;stroke:#000000;stroke-width:0.73651093px;stroke-linecap:butt;stroke-linejoin:miter;stroke-opacity:1"
       d="m 94.346394,862.44996 c -40.022401,19.35331 63.003226,33.72255 62.568596,35.63506 -1.02106,4.49298 -4.63761,-7.17672 -7.62764,-9.96999 -17.32236,-16.17511 -35.92687,-21.344 -54.940956,-25.66507 z"
       id="path2995"
       inkscape:connector-curvature="0" />
    <path
       style="fill:#faf0e6;stroke:#000000;stroke-width:0.73651093px;stroke-linecap:butt;stroke-linejoin:miter;stroke-opacity:1"
       d="m 82.581413,795.2397 c 4.418539,-18.25479 2.870762,-27.17702 20.672937,-6.42553 26.4188,30.79479 14.63738,-47.19765 41.3459,-16.0654 12.28016,14.31463 -34.27189,60.22594 -62.018837,22.49093 z"
       id="path2999"
       inkscape:connector-curvature="0" />
    <path
       style="fill:#faebd7;stroke:#000000;stroke-width:0.73651093px;stroke-linecap:butt;stroke-linejoin:miter;stroke-opacity:1"
       d="m 306.33695,773.88343 c -2.48214,-14.67534 -21.58922,31.06188 -11.02557,43.37503 13.28891,15.48977 61.03356,-4.3612 50.99329,-16.06478 -8.45453,-9.85542 -22.5125,9.10131 -27.56394,3.21308 -9.1036,-10.6114 13.39809,-55.78117 -15.16016,-22.49156"
       id="path3001"
       inkscape:connector-curvature="0" />
    <path
       style="fill:#556b2f;stroke:#000000;stroke-width:0.73651093px;stroke-linecap:butt;stroke-linejoin:miter;stroke-opacity:1"
       d="m 126.67457,860.28281 c -39.789511,34.53135 30.7156,57.2856 0,0 z"
       id="path3011"
       inkscape:connector-curvature="0" />
    <path
       sodipodi:type="arc"
       style="fill:#ff0000;stroke:#e9967a"
       id="path3013"
       sodipodi:cx="328.29959"
       sodipodi:cy="614.96613"
       sodipodi:rx="43.436558"
       sodipodi:ry="31.31473"
       d="m 371.73615,614.96613 a 43.436558,31.31473 0 1 1 -86.87312,0 43.436558,31.31473 0 1 1 86.87312,0 z"
       transform="matrix(0.68217247,0,0,0.79517783,-62.447523,437.22379)" />
    <path
       style="fill:#fffafa;stroke:#000000;stroke-width:0.73651093px;stroke-linecap:butt;stroke-linejoin:miter;stroke-opacity:1"
       d="m 306.12399,864.93527 c 39.43186,20.52975 -63.97413,31.84183 -63.59619,33.767 0.88735,4.52 4.84793,-7.0369 7.91935,-9.74041 17.79375,-15.65455 36.54315,-20.27035 55.67684,-24.02659 z"
       id="path2995-6"
       inkscape:connector-curvature="0" />
    <path
       style="fill:#556b2f;stroke:#000000;stroke-width:0.73651093px;stroke-linecap:butt;stroke-linejoin:miter;stroke-opacity:1"
       d="m 277.03655,863.06606 c 39.78949,34.53261 -30.7156,57.28684 0,0 z"
       id="path3011-3"
       inkscape:connector-curvature="0" />
    <path
       style="fill:none;stroke:#000000;stroke-width:4.83191538px;stroke-linecap:butt;stroke-linejoin:miter;stroke-opacity:1"
       d="m 159.52734,958.24184 c 39.03705,-14.09593 106.59823,-12.71661 128.56427,19.29825"
       id="path3062"
       inkscape:connector-curvature="0" />
    <path
       style="fill:#fff5ee;stroke:#000000;stroke-width:4.91107988px;stroke-linecap:butt;stroke-linejoin:miter;stroke-opacity:1"
       d="m 215.33052,948.84751 c -5.78927,-47.77084 62.05385,-4.13413 67.49223,19.31545 -20.70939,-8.37153 -40.4061,-18.6409 -67.49223,-19.31545 z"
       id="path3064"
       inkscape:connector-curvature="0" />
    <path
       style="fill:#d2691e;stroke:#000000;stroke-width:6.08599186px;stroke-linecap:butt;stroke-linejoin:miter;stroke-opacity:1"
       d="m 192.97022,805.5536 c -28.18884,-3.96089 -25.52304,-56.23927 -13.70327,-81.01958 8.21234,-17.21836 23.30158,-34.47686 22.61041,-34.47686 -5.84094,0 -6.74314,24.54258 -5.48132,29.30508 0.98233,3.70732 5.84706,11.20506 2.74065,11.20506 -1.98831,0 22.45953,-35.24367 26.72139,-37.92453 5.77538,-3.63243 37.60259,-26.82146 45.2208,-17.23809 1.13564,1.42864 -25.35106,47.05646 -25.35106,53.43894 0,7.09529 9.69504,-7.26956 14.38843,-11.20443 4.36284,-3.65964 58.92408,-2.02098 58.92408,-1.72506 0,9.78491 -13.49944,10.82136 -17.81425,18.96207 -12.50912,23.60418 -16.0285,80.15766 -50.01694,80.15766 -10.00724,0 -8.9921,-3.01197 -10.27745,-9.48026"
       id="path3068"
       inkscape:connector-curvature="0" />
    <path
       style="fill:#d2691e;stroke:#000000;stroke-width:6.08599186px;stroke-linecap:butt;stroke-linejoin:miter;stroke-opacity:1"
       d="m 299.17059,983.9698 c -10.22896,13.74149 -2.83889,22.9622 6.16647,31.8888 17.78607,17.6321 23.6652,14.4209 32.88786,20.6868 10.71088,7.2764 -16.32735,-36.2099 -16.44393,-47.40514 -0.28468,-27.33591 24.46665,-7.86702 39.05433,-3.44799 8.54065,2.58839 -13.86831,-48.06489 -19.86975,-50.85253 -12.933,-6.00701 15.76913,-17.33417 45.2208,-22.40988 23.78193,-4.09788 -39.53173,-27.79098 -52.07243,-6.89495"
       id="path3070"
       inkscape:connector-curvature="0"
       sodipodi:nodetypes="cssssssc" />
    <path
       style="fill:#d2691e;stroke:#000000;stroke-width:6.08599186px;stroke-linecap:butt;stroke-linejoin:miter;stroke-opacity:1"
       d="m 99.042711,906.17275 c -14.780672,-21.10152 -24.418016,-15.55639 -57.346227,7.76593 -9.956316,7.0527 -20.215873,49.21299 -12.970604,38.59531 16.843916,-24.68221 62.960761,-34.04935 47.412671,-23.32799 -27.41314,2.66134 -53.385935,71.5619 -42.860761,67.24467 -2.650469,-7.91234 37.502959,-13.80873 39.625244,-7.47249 1.456466,4.3474 -19.840356,32.66252 -23.021296,34.34912 -6.996239,3.7071 19.721392,4.8105 26.717626,1.1022 15.523563,-8.229 29.210756,-24.1442 37.082456,-40.23101"
       id="path3076"
       inkscape:connector-curvature="0"
       sodipodi:nodetypes="cssccsccc" />
    <path
       style="fill:none;stroke:#000000;stroke-width:6.22153139px;stroke-linecap:butt;stroke-linejoin:miter;stroke-opacity:1"
       d="m 131.36007,922.34148 c 17.94309,-35.2366 52.28889,-21.09607 52.88772,-9.5219"
       id="path3118"
       inkscape:connector-curvature="0"
       sodipodi:nodetypes="cc" />
    <path
       style="fill:none;stroke:#000000;stroke-width:6.22153139px;stroke-linecap:butt;stroke-linejoin:miter;stroke-opacity:1"
       d="m 112.86898,985.1872 c 33.00114,58.9608 147.8468,57.6582 177.32935,12.69596"
       id="path3120"
       inkscape:connector-curvature="0"
       sodipodi:nodetypes="cc" />
    <path
       sodipodi:type="arc"
       style="fill:#7fff00;stroke:#6b8e23"
       id="path3198"
       sodipodi:cx="19.445436"
       sodipodi:cy="34.263634"
       sodipodi:rx="1.0101526"
       sodipodi:ry="0.82074893"
       d="m 20.455589,34.263634 a 1.0101526,0.82074893 0 1 1 -2.020305,0 1.0101526,0.82074893 0 1 1 2.020305,0 z"
       transform="matrix(6.1595476,0,0,6.2841398,4.7602906,663.93851)" />
    <path
       sodipodi:type="arc"
       style="fill:#adff2f;stroke:#6b8e23"
       id="path3200"
       sodipodi:cx="44.762386"
       sodipodi:cy="34.642441"
       sodipodi:rx="0.94701803"
       sodipodi:ry="0.94701803"
       d="m 45.709404,34.642441 a 0.94701803,0.94701803 0 1 1 -1.894036,0 0.94701803,0.94701803 0 1 1 1.894036,0 z"
       transform="matrix(6.1595476,0,0,6.2841398,3.2047701,663.14502)" />
    <path
       style="fill:none;stroke:#000000;stroke-width:1.25750053px;stroke-linecap:butt;stroke-linejoin:miter;stroke-opacity:1"
       d="m 259.0202,843.60487 c 15.13625,-10.11931 9.24573,-11.96577 2.3136,-21.36972"
       id="path3309"
       inkscape:connector-curvature="0" />
    <path
       inkscape:connector-curvature="0"
       id="path3311"
       d="m 292.79144,843.60487 c -15.13625,-10.11931 -9.24573,-11.96577 -2.3136,-21.36972"
       style="fill:none;stroke:#000000;stroke-width:1.25750053px;stroke-linecap:butt;stroke-linejoin:miter;stroke-opacity:1"
       inkscape:transform-center-x="-14.285712" />
    <path
       style="fill:none;stroke:#000000;stroke-width:1.25750053px;stroke-linecap:butt;stroke-linejoin:miter;stroke-opacity:1"
       d="m 267.36774,851.60692 c 7.57436,-16.91712 9.45033,-9.54744 17.6878,0.10809"
       id="path3313"
       inkscape:connector-curvature="0"
       inkscape:transform-center-y="16.547646"
       inkscape:transform-center-x="-1.0201001" />
    <path
       inkscape:transform-center-x="-1.0201001"
       inkscape:transform-center-y="-16.547647"
       inkscape:connector-curvature="0"
       id="path3315"
       d="m 268.79631,811.37594 c 7.57436,16.91712 9.45033,9.54744 17.6878,-0.10809"
       style="fill:none;stroke:#000000;stroke-width:1.25750053px;stroke-linecap:butt;stroke-linejoin:miter;stroke-opacity:1" />
  </g>
</svg>
