<?xml version="1.0" encoding="UTF-8" standalone="no"?>
<!-- Created with Inkscape (http://www.inkscape.org/) -->

<svg
   xmlns:dc="http://purl.org/dc/elements/1.1/"
   xmlns:cc="http://creativecommons.org/ns#"
   xmlns:rdf="http://www.w3.org/1999/02/22-rdf-syntax-ns#"
   xmlns:svg="http://www.w3.org/2000/svg"
   xmlns="http://www.w3.org/2000/svg"
   xmlns:sodipodi="http://sodipodi.sourceforge.net/DTD/sodipodi-0.dtd"
   xmlns:inkscape="http://www.inkscape.org/namespaces/inkscape"
   width="210mm"
   height="297mm"
   id="svg2"
   version="1.1"
   inkscape:version="0.48.4 r9939"
   sodipodi:docname="elfo-zombie.svg"
   inkscape:export-filename="C:\Users\Usuario\Pictures\zombie-elf.png"
   inkscape:export-xdpi="90"
   inkscape:export-ydpi="90">
  <defs
     id="defs4" />
  <sodipodi:namedview
     id="base"
     pagecolor="#ffffff"
     bordercolor="#666666"
     borderopacity="1.0"
     inkscape:pageopacity="0.0"
     inkscape:pageshadow="2"
     inkscape:zoom="2"
     inkscape:cx="338.06656"
     inkscape:cy="687.97529"
     inkscape:document-units="px"
     inkscape:current-layer="layer1"
     showgrid="false"
     inkscape:window-width="1680"
     inkscape:window-height="988"
     inkscape:window-x="-8"
     inkscape:window-y="-8"
     inkscape:window-maximized="1" />
  <metadata
     id="metadata7">
    <rdf:RDF>
      <cc:Work
         rdf:about="">
        <dc:format>image/svg+xml</dc:format>
        <dc:type
           rdf:resource="http://purl.org/dc/dcmitype/StillImage" />
        <dc:title></dc:title>
      </cc:Work>
    </rdf:RDF>
  </metadata>
  <g
     inkscape:label="Capa 1"
     inkscape:groupmode="layer"
     id="layer1">
    <path
       style="fill:#b8d1b7;fill-opacity:1;stroke:#000000;stroke-width:1.91453147;stroke-linecap:round;stroke-linejoin:round;stroke-miterlimit:4;stroke-opacity:1;stroke-dashoffset:16.2"
       d="m 367.91503,355.62 c 0,1.82201 -3.43646,8.28783 -11.65527,8.77062 -2.69688,0.15842 -0.6228,-2.76446 -0.6228,-4.58647 0,-1.82202 3.79236,-5.06926 6.49492,-5.06926 2.70257,0 5.78315,-0.9369 5.78315,0.88511 z"
       id="path3779"
       inkscape:connector-curvature="0"
       sodipodi:nodetypes="sssss"
       inkscape:export-filename="C:\Users\Usuario\Pictures\zombie-elf_blank.png"
       inkscape:export-xdpi="90"
       inkscape:export-ydpi="90" />
    <path
       style="fill:#272727;stroke:#000000;stroke-width:1.90654695000000010;stroke-linecap:butt;stroke-linejoin:miter;stroke-miterlimit:4;stroke-opacity:1;stroke-dasharray:none;fill-opacity:1"
       d="m 327.70711,391.19334 c 0,0 -1.6057,13.52946 -0.89205,15.28033 0.71365,1.75087 0.53523,3.66091 3.56823,3.1834 3.033,-0.47751 6.77965,1.43253 6.42282,-2.86506 -0.35682,-4.2976 -1.07047,-16.71287 -1.07047,-16.71287 0,0 -7.13646,-1.11419 -8.02853,1.1142 z"
       id="path3771"
       inkscape:connector-curvature="0"
       inkscape:export-filename="C:\Users\Usuario\Pictures\zombie-elf_blank.png"
       inkscape:export-xdpi="90"
       inkscape:export-ydpi="90" />
    <path
       sodipodi:nodetypes="sssss"
       inkscape:connector-curvature="0"
       id="path3782"
       d="m 294.59441,355.62 c 0,1.82201 3.43646,8.28783 11.65527,8.77062 2.69688,0.15842 0.6228,-2.76446 0.6228,-4.58647 0,-1.82202 -3.79236,-5.06926 -6.49492,-5.06926 -2.70257,0 -5.78315,-0.9369 -5.78315,0.88511 z"
       style="fill:#b8d1b7;fill-opacity:1;stroke:#000000;stroke-width:1.91453147;stroke-linecap:round;stroke-linejoin:round;stroke-miterlimit:4;stroke-opacity:1;stroke-dashoffset:16.2"
       inkscape:export-filename="C:\Users\Usuario\Pictures\zombie-elf_blank.png"
       inkscape:export-xdpi="90"
       inkscape:export-ydpi="90" />
    <path
       style="fill:#b8d1b7;fill-opacity:1;stroke:#000000;stroke-width:2.03675246;stroke-linecap:round;stroke-linejoin:round;stroke-miterlimit:4;stroke-opacity:1;stroke-dasharray:none;stroke-dashoffset:16.2"
       d="m 356.87234,356.3685 c 0,12.75454 -11.61658,34.10192 -25.94635,34.10192 -14.32979,0 -25.94637,-21.34738 -25.94637,-34.10192 0,-12.75452 11.61658,-23.09411 25.94637,-23.09411 14.32977,0 25.94635,10.33959 25.94635,23.09411 z"
       id="path2996"
       inkscape:connector-curvature="0"
       sodipodi:nodetypes="sssss"
       inkscape:export-filename="C:\Users\Usuario\Pictures\zombie-elf_blank.png"
       inkscape:export-xdpi="90"
       inkscape:export-ydpi="90" />
    <path
       style="fill:#000000;fill-opacity:1;stroke:#000000;stroke-width:5;stroke-linecap:round;stroke-linejoin:round;stroke-miterlimit:4;stroke-opacity:1;stroke-dasharray:none;stroke-dashoffset:16.2"
       d="m 304.46353,356.55291 c 2.94294,1.07254 -2.11871,-2.25791 0.60144,-2.31403 1.81598,0.1859 1.60176,-1.81286 1.44297,-2.38182 0.7907,-1.45366 -1.69707,-3.82453 0.98288,-3.86554 0.0927,-1.61992 -1.32958,-3.97725 0.45761,-4.26739 -0.30129,-1.59161 1.47189,-4.15765 2.38698,-1.6626 -0.40536,-1.21288 0.39385,-2.91369 1.46857,-1.74398 0.67878,-1.23525 -0.21791,-5.18546 1.87007,-4.26239 0.84131,0.42053 0.96216,1.87303 1.08895,0.19309 1.05431,-0.72136 3.00066,2.58478 2.64233,-0.30386 0.1355,-1.94615 2.59293,-1.18052 2.70215,0.18894 0.38932,-1.31919 1.18846,-4.30098 2.80109,-2.88565 1.03994,-2.09063 3.91896,-3.11282 4.47083,-0.0934 1.00602,-1.81046 3.14607,-2.41748 4.51219,-0.49472 0.90598,0.69695 1.83562,1.37516 1.68091,-0.34059 1.13747,0.36762 2.90885,-3.10615 3.49913,-0.32566 1.10293,1.66996 4.64182,-1.07919 4.25297,2.37064 0.76202,-2.57929 2.85501,0.81524 3.04647,2.18535 0.76654,1.28423 3.16462,-2.07291 3.63261,0.3745 0.45348,-1.31562 2.97788,-0.59666 2.17946,1.00158 0.4486,0.55329 2.14382,0.20342 1.3525,1.35626 2.4033,-0.63456 2.81484,3.15091 2.74585,4.76722 0.43676,2.1765 1.05841,4.17346 1.34479,6.32431 0.25752,1.51638 0.37975,3.37014 0.87826,4.99313 1.61202,0.51946 -0.36201,2.91745 0.0612,0.7978 -1.29338,-1.84035 -1.11324,-4.07474 -1.55189,-6.13497 -0.19705,-1.85274 -0.68693,-3.50032 -1.17986,-5.36186 0.11365,-1.73558 -0.38909,-4.61346 -1.74893,-5.26203 -1.43529,0.99454 -1.42054,-0.60326 -1.62874,-0.89894 -1.4798,-0.004 -0.45133,-3.70853 -1.94264,-1.58964 -1.61997,0.7262 -0.94415,-1.90761 -2.08399,-0.27969 -2.4901,1.68404 -3.29533,-1.49369 -4.08278,-3.14177 -0.94328,1.86489 -2.0363,0.16995 -2.20994,-1.21802 -1.29378,1.1598 -3.52758,0.65877 -4.03277,-1.21803 -1.27357,1.00255 -1.92481,1.69367 -2.79618,2.60276 -1.95008,0.23466 -3.16498,-3.81835 -4.49609,-1.37312 -1.37641,2.27999 -2.53451,0.049 -3.31717,-1.09933 -0.68809,1.35411 -3.01685,2.53256 -3.51973,2.01705 -0.4072,2.33624 -2.7492,3.8446 -3.57455,1.66972 0.002,2.08993 -2.15509,3.61689 -3.3125,1.20369 0.13883,2.89833 -1.70686,-0.25278 -1.99453,-0.10146 0.3547,1.93444 -1.27184,4.82251 -2.10696,4.5988 0.22969,1.81741 -1.31619,1.98662 -1.96733,0.47987 -0.2644,1.27544 -0.36377,3.73648 -1.76634,3.42976 0.78173,1.50905 1.53902,4.12704 -0.73181,4.30811 0.34367,1.22044 1.27505,2.8703 0.42898,3.6334 1.797,1.86457 -4.31936,1.60534 -1.47499,3.40741 2.51693,1.54112 -2.23406,0.77469 -1.01144,0.71709 z"
       id="path3769"
       inkscape:connector-curvature="0" />
    <path
       style="fill:#c4c4c4;stroke:#000000;stroke-width:2;stroke-linecap:butt;stroke-linejoin:miter;stroke-miterlimit:4;stroke-opacity:1;stroke-dasharray:none;fill-opacity:1"
       d="m 326.68333,408.9834 c 0,0 -4.77297,10.96015 -1.41421,12.02081 3.35876,1.06066 5.48008,-0.53033 5.48008,-0.53033 l 0.7071,-7.24784 0,7.6014 c 0,0 0.88389,2.12132 3.35876,1.41421 2.47488,-0.70711 4.06587,-2.12132 3.53554,-4.77297 -0.53033,-2.65165 -1.23744,-8.83884 -1.23744,-8.83884 0,0 -5.3033,3.35876 -10.42983,0.35356 z"
       id="path3773"
       inkscape:connector-curvature="0"
       inkscape:export-filename="C:\Users\Usuario\Pictures\zombie-elf_blank.png"
       inkscape:export-xdpi="90"
       inkscape:export-ydpi="90" />
    <path
       sodipodi:type="arc"
       style="fill:#cccccc;fill-opacity:1;stroke:none"
       id="path3921"
       sodipodi:cx="293.75"
       sodipodi:cy="444.61218"
       sodipodi:rx="17.5"
       sodipodi:ry="4.75"
       d="m 311.25,444.61218 a 17.5,4.75 0 1 1 -35,0 17.5,4.75 0 1 1 35,0 z"
       transform="matrix(0.81428572,0,0,1.106767,92.303573,-58.719869)"
       inkscape:export-filename="C:\Users\Usuario\Pictures\zombie-elf_blank.png"
       inkscape:export-xdpi="90"
       inkscape:export-ydpi="90" />
    <path
       style="fill:none;stroke:#000000;stroke-width:2;stroke-linecap:butt;stroke-linejoin:miter;stroke-miterlimit:4;stroke-opacity:1;stroke-dasharray:none"
       d="m 335.19454,422.36218 0.75,9.25 4.5,0.5"
       id="path3775"
       inkscape:connector-curvature="0"
       inkscape:export-filename="C:\Users\Usuario\Pictures\zombie-elf_blank.png"
       inkscape:export-xdpi="90"
       inkscape:export-ydpi="90" />
    <path
       inkscape:connector-curvature="0"
       id="path3777"
       d="m 327.38634,421.45287 -0.50412,10.80764 -4.79243,0.84936"
       style="fill:none;stroke:#000000;stroke-width:2;stroke-linecap:butt;stroke-linejoin:miter;stroke-miterlimit:4;stroke-opacity:1;stroke-dasharray:none"
       sodipodi:nodetypes="ccc"
       inkscape:export-filename="C:\Users\Usuario\Pictures\zombie-elf_blank.png"
       inkscape:export-xdpi="90"
       inkscape:export-ydpi="90" />
    <path
       style="fill:none;stroke:#000000;stroke-width:2;stroke-linecap:butt;stroke-linejoin:miter;stroke-miterlimit:4;stroke-opacity:1;stroke-dasharray:none"
       d="m 336,390.36218 c 0,0 8.75,6.75 9.5,18.75"
       id="path3784"
       inkscape:connector-curvature="0"
       inkscape:export-filename="C:\Users\Usuario\Pictures\zombie-elf_blank.png"
       inkscape:export-xdpi="90"
       inkscape:export-ydpi="90" />
    <path
       style="fill:none;stroke:#000000;stroke-width:2;stroke-linecap:butt;stroke-linejoin:miter;stroke-miterlimit:4;stroke-opacity:1;stroke-dasharray:none"
       d="m 327.25,390.11218 c 0,0 -7.25,9.5 -7,17.75"
       id="path3786"
       inkscape:connector-curvature="0"
       inkscape:export-filename="C:\Users\Usuario\Pictures\zombie-elf_blank.png"
       inkscape:export-xdpi="90"
       inkscape:export-ydpi="90" />
    <path
       style="fill:#000000;fill-opacity:1;stroke:none"
       d="m 328.80187,358.91773 c 1.81223,7.24949 -1.51429,14.69445 -6.45606,14.69445 -4.94178,0 -12.34581,-6.93384 -12.34581,-12.65 0,-5.71615 4.0061,-10.35 8.94788,-10.35 4.94178,0 8.47871,2.80399 9.85399,8.30555 z"
       id="path3788"
       inkscape:connector-curvature="0"
       sodipodi:nodetypes="sssss"
       inkscape:export-filename="C:\Users\Usuario\Pictures\zombie-elf_blank.png"
       inkscape:export-xdpi="90"
       inkscape:export-ydpi="90" />
    <path
       sodipodi:nodetypes="sssss"
       inkscape:connector-curvature="0"
       id="path3793"
       d="m 333.37564,358.91773 c -1.81223,7.24949 1.51429,14.69445 6.45606,14.69445 4.94178,0 12.34581,-6.93384 12.34581,-12.65 0,-5.71615 -4.0061,-10.35 -8.94788,-10.35 -4.94178,0 -8.47871,2.80399 -9.85399,8.30555 z"
       style="fill:#000000;fill-opacity:1;stroke:none"
       inkscape:export-filename="C:\Users\Usuario\Pictures\zombie-elf_blank.png"
       inkscape:export-xdpi="90"
       inkscape:export-ydpi="90" />
    <path
       sodipodi:type="arc"
       style="fill:#cccccc;fill-opacity:1;stroke:none"
       id="path3917"
       sodipodi:cx="293.75"
       sodipodi:cy="444.61218"
       sodipodi:rx="17.5"
       sodipodi:ry="4.75"
       d="m 311.25,444.61218 a 17.5,4.75 0 1 1 -35,0 17.5,4.75 0 1 1 35,0 z"
       transform="translate(-0.25,-12)"
       inkscape:export-filename="C:\Users\Usuario\Pictures\zombie-elf_blank.png"
       inkscape:export-xdpi="90"
       inkscape:export-ydpi="90" />
    <path
       style="fill:#ffffff;fill-opacity:1;stroke:#000000;stroke-width:2;stroke-linecap:butt;stroke-linejoin:miter;stroke-miterlimit:4;stroke-opacity:1;stroke-dasharray:none"
       d="m 319.25872,359.39754 c -6.89482,-0.55622 -14.39745,1.68071 -18.49941,7.57149 -3.93193,4.63921 -2.6259,10.98145 -0.11075,15.9244 2.6749,6.85232 6.72386,14.02078 5.35461,21.60166 -1.5305,4.8874 -7.41827,6.35635 -11.81235,4.64057 -4.58796,-2.08459 -10.56638,-4.41973 -14.34266,0.54767 -4.05009,4.67128 -5.07286,12.27305 -1.83832,17.6406 4.3339,5.05573 11.78761,4.80463 17.85788,4.2095 6.83188,-0.29922 14.13947,-2.63381 17.89655,-8.77792 5.19414,-7.34202 3.46725,-16.82057 1.83979,-25.01369 -1.06534,-6.08362 -3.20279,-12.10927 -3.07352,-18.3218 0.91299,-5.12378 3.76562,-10.6113 8.91241,-12.30134 4.24573,-2.42781 1.82195,-6.95089 -2.18423,-7.72114 z"
       id="path3799"
       inkscape:connector-curvature="0"
       inkscape:export-filename="C:\Users\Usuario\Pictures\zombie-elf_blank.png"
       inkscape:export-xdpi="90"
       inkscape:export-ydpi="90" />
    <path
       sodipodi:type="arc"
       style="fill:#000000;fill-opacity:1;stroke:none"
       id="path3805"
       sodipodi:cx="284.43372"
       sodipodi:cy="419.32483"
       sodipodi:rx="3.3587573"
       sodipodi:ry="3.3587573"
       d="m 287.79247,419.32483 a 3.3587573,3.3587573 0 1 1 -6.71751,0 3.3587573,3.3587573 0 1 1 6.71751,0 z"
       inkscape:export-filename="C:\Users\Usuario\Pictures\zombie-elf_blank.png"
       inkscape:export-xdpi="90"
       inkscape:export-ydpi="90" />
    <path
       style="fill:#000000;fill-opacity:1;stroke:none"
       d="m 285.63282,398.15633 c -0.41881,1.47226 1.15691,5.44922 -1.55998,4.78864 -0.0982,-1.45704 -0.70521,-3.66562 0.39045,-4.74729 0.38102,-0.16924 0.77872,-0.0631 1.16953,-0.0414 z"
       id="path3821"
       inkscape:connector-curvature="0"
       inkscape:export-filename="C:\Users\Usuario\Pictures\zombie-elf_blank.png"
       inkscape:export-xdpi="90"
       inkscape:export-ydpi="90" />
    <path
       style="fill:#000000;fill-opacity:1;stroke:none"
       d="m 292.55163,399.83461 c -0.94044,1.20768 -0.97155,5.48526 -3.24225,3.85389 0.45575,-1.38743 0.72125,-3.66248 2.14261,-4.25423 0.41655,-0.0141 0.74598,0.23387 1.09964,0.40034 z"
       id="path3823"
       inkscape:connector-curvature="0"
       inkscape:export-filename="C:\Users\Usuario\Pictures\zombie-elf_blank.png"
       inkscape:export-xdpi="90"
       inkscape:export-ydpi="90" />
    <path
       style="fill:#000000;fill-opacity:1;stroke:none"
       d="m 278.59561,399.20018 c 0.27223,1.50626 3.43796,4.38317 0.70782,4.98633 -0.72951,-1.26512 -2.24712,-2.98068 -1.73968,-4.43427 0.26734,-0.31966 0.67204,-0.39973 1.03186,-0.55206 z"
       id="path3825"
       inkscape:connector-curvature="0"
       inkscape:export-filename="C:\Users\Usuario\Pictures\zombie-elf_blank.png"
       inkscape:export-xdpi="90"
       inkscape:export-ydpi="90" />
    <path
       transform="translate(74.25,-12)"
       d="m 311.25,444.61218 a 17.5,4.75 0 1 1 -35,0 17.5,4.75 0 1 1 35,0 z"
       sodipodi:ry="4.75"
       sodipodi:rx="17.5"
       sodipodi:cy="444.61218"
       sodipodi:cx="293.75"
       id="path3919"
       style="fill:#cccccc;fill-opacity:1;stroke:none"
       sodipodi:type="arc"
       inkscape:export-filename="C:\Users\Usuario\Pictures\zombie-elf_blank.png"
       inkscape:export-xdpi="90"
       inkscape:export-ydpi="90" />
    <path
       inkscape:connector-curvature="0"
       id="path3845"
       d="m 343.75856,359.39754 c 6.89482,-0.55622 14.39745,1.68071 18.49941,7.57149 3.93193,4.63921 2.6259,10.98145 0.11075,15.9244 -2.6749,6.85232 -6.72386,14.02078 -5.35461,21.60166 1.5305,4.8874 7.41827,6.35635 11.81235,4.64057 4.58796,-2.08459 10.56638,-4.41973 14.34266,0.54767 4.05009,4.67128 5.07286,12.27305 1.83832,17.6406 -4.3339,5.05573 -11.78761,4.80463 -17.85788,4.2095 -6.83188,-0.29922 -14.13947,-2.63381 -17.89655,-8.77792 -5.19414,-7.34202 -3.46725,-16.82057 -1.83979,-25.01369 1.06534,-6.08362 3.20279,-12.10927 3.07352,-18.3218 -0.91299,-5.12378 -3.76562,-10.6113 -8.91241,-12.30134 -4.24573,-2.42781 -1.82195,-6.95089 2.18423,-7.72114 z"
       style="fill:#ffffff;fill-opacity:1;stroke:#000000;stroke-width:2;stroke-linecap:butt;stroke-linejoin:miter;stroke-miterlimit:4;stroke-opacity:1;stroke-dasharray:none"
       inkscape:export-filename="C:\Users\Usuario\Pictures\zombie-elf_blank.png"
       inkscape:export-xdpi="90"
       inkscape:export-ydpi="90" />
    <path
       d="m 287.79247,419.32483 a 3.3587573,3.3587573 0 1 1 -6.71751,0 3.3587573,3.3587573 0 1 1 6.71751,0 z"
       sodipodi:ry="3.3587573"
       sodipodi:rx="3.3587573"
       sodipodi:cy="419.32483"
       sodipodi:cx="284.43372"
       id="path3847"
       style="fill:#000000;fill-opacity:1;stroke:none"
       sodipodi:type="arc"
       transform="matrix(-1,0,0,1,663.01728,0)"
       inkscape:export-filename="C:\Users\Usuario\Pictures\zombie-elf_blank.png"
       inkscape:export-xdpi="90"
       inkscape:export-ydpi="90" />
    <path
       inkscape:connector-curvature="0"
       id="path3849"
       d="m 377.38446,398.15633 c 0.41881,1.47226 -1.15691,5.44922 1.55998,4.78864 0.0982,-1.45704 0.70521,-3.66562 -0.39045,-4.74729 -0.38102,-0.16924 -0.77872,-0.0631 -1.16953,-0.0414 z"
       style="fill:#000000;fill-opacity:1;stroke:none"
       inkscape:export-filename="C:\Users\Usuario\Pictures\zombie-elf_blank.png"
       inkscape:export-xdpi="90"
       inkscape:export-ydpi="90" />
    <path
       inkscape:connector-curvature="0"
       id="path3851"
       d="m 370.46565,399.83461 c 0.94044,1.20768 0.97155,5.48526 3.24225,3.85389 -0.45575,-1.38743 -0.72125,-3.66248 -2.14261,-4.25423 -0.41655,-0.0141 -0.74598,0.23387 -1.09964,0.40034 z"
       style="fill:#000000;fill-opacity:1;stroke:none"
       inkscape:export-filename="C:\Users\Usuario\Pictures\zombie-elf_blank.png"
       inkscape:export-xdpi="90"
       inkscape:export-ydpi="90" />
    <path
       inkscape:connector-curvature="0"
       id="path3853"
       d="m 384.42167,399.20018 c -0.27223,1.50626 -3.43796,4.38317 -0.70782,4.98633 0.72951,-1.26512 2.24712,-2.98068 1.73968,-4.43427 -0.26734,-0.31966 -0.67204,-0.39973 -1.03186,-0.55206 z"
       style="fill:#000000;fill-opacity:1;stroke:none"
       inkscape:export-filename="C:\Users\Usuario\Pictures\zombie-elf_blank.png"
       inkscape:export-xdpi="90"
       inkscape:export-ydpi="90" />
    <g
       id="g3928">
      <path
         inkscape:connector-curvature="0"
         id="path3855"
         d="m 319.33312,332.27517 c 1.59524,-1.87489 2.12137,-4.35822 2.99868,-6.6001 2.79017,-8.24616 4.7715,-16.74964 7.58444,-24.98285 1.04179,-1.64006 1.36369,1.39473 1.84525,2.06077 2.89038,7.52662 5.3009,15.22584 7.83246,22.8779 0.52222,1.60961 1.04129,3.22024 1.55723,4.83187 -6.49997,3.89801 -14.74027,4.23942 -21.81806,1.81241 z"
         style="fill:#ff1287;fill-opacity:1;stroke:#000000;stroke-width:2;stroke-linecap:butt;stroke-linejoin:miter;stroke-miterlimit:4;stroke-opacity:1;stroke-dasharray:none" />
      <path
         inkscape:export-ydpi="90"
         inkscape:export-xdpi="90"
         inkscape:export-filename="C:\Users\Usuario\Pictures\zombie-elf_blank.png"
         transform="translate(5.3033004,15.379572)"
         d="m 326.32977,312.5517 c 0,2.34314 -1.8995,4.24264 -4.24264,4.24264 -2.34315,0 -4.24264,-1.8995 -4.24264,-4.24264 0,-2.34315 1.89949,-4.24264 4.24264,-4.24264 2.34314,0 4.24264,1.89949 4.24264,4.24264 z"
         sodipodi:ry="4.2426405"
         sodipodi:rx="4.2426405"
         sodipodi:cy="312.5517"
         sodipodi:cx="322.08713"
         id="path3863"
         style="fill:#ccff00;fill-opacity:1;stroke:none"
         sodipodi:type="arc" />
      <path
         inkscape:export-ydpi="90"
         inkscape:export-xdpi="90"
         inkscape:export-filename="C:\Users\Usuario\Pictures\zombie-elf_blank.png"
         sodipodi:type="arc"
         style="fill:#2ad4ff;fill-opacity:1;stroke:none"
         id="path3865"
         sodipodi:cx="322.08713"
         sodipodi:cy="312.5517"
         sodipodi:rx="4.2426405"
         sodipodi:ry="4.2426405"
         d="m 326.32977,312.5517 c 0,2.34314 -1.8995,4.24264 -4.24264,4.24264 -2.34315,0 -4.24264,-1.8995 -4.24264,-4.24264 0,-2.34315 1.89949,-4.24264 4.24264,-4.24264 2.34314,0 4.24264,1.89949 4.24264,4.24264 z"
         transform="matrix(0.54166665,0,0,0.54166665,155.22467,150.85427)" />
      <path
         inkscape:export-ydpi="90"
         inkscape:export-xdpi="90"
         inkscape:export-filename="C:\Users\Usuario\Pictures\zombie-elf_blank.png"
         id="path3869-1"
         d="m 331.84019,305.96164 c -1.45431,0.81788 -2.4375,2.36891 -2.4375,4.15625 0,2.63604 2.14521,4.78125 4.78125,4.78125 0.24424,0 0.48438,-0.0271 0.71875,-0.0625 -1.09015,-3.23364 -2.15412,-6.38799 -3.0625,-8.875 z"
         style="fill:#00ff00;fill-opacity:1;stroke:none"
         inkscape:connector-curvature="0" />
      <path
         inkscape:export-ydpi="90"
         inkscape:export-xdpi="90"
         inkscape:export-filename="C:\Users\Usuario\Pictures\zombie-elf_blank.png"
         inkscape:connector-curvature="0"
         style="fill:#ffff00;fill-opacity:1;stroke:none"
         d="m 325.84098,317.5952 c 1.33285,0.10307 2.68363,-0.45991 3.48895,-1.59275 1.18771,-1.67074 0.73181,-3.94703 -1.01612,-5.07341 -0.16196,-0.10436 -0.33341,-0.1898 -0.50476,-0.2675 -0.73411,2.51534 -1.44985,4.96921 -1.96807,6.93366 z"
         id="path3901" />
      <path
         inkscape:export-ydpi="90"
         inkscape:export-xdpi="90"
         inkscape:export-filename="C:\Users\Usuario\Pictures\zombie-elf_blank.png"
         inkscape:connector-curvature="0"
         style="fill:#ffffff;fill-opacity:1;stroke:none"
         d="m 335.97123,318.19739 c -1.79589,0.71585 -3.06738,2.19625 -3.1701,3.98063 -0.15151,2.63169 2.30493,4.92186 5.47491,5.10436 0.29371,0.0169 0.58405,0.006 0.86793,-0.0126 -1.12512,-3.30377 -2.22331,-6.52656 -3.17274,-9.07235 z"
         id="path3903" />
    </g>
    <path
       style="fill:none;stroke:#000000;stroke-width:2;stroke-linecap:round;stroke-linejoin:miter;stroke-miterlimit:4;stroke-opacity:1;stroke-dasharray:none"
       d="m 315.45711,348.24606 c 1.5,-0.25 9.5,-1.75 12,1.25"
       id="path3905"
       inkscape:connector-curvature="0"
       inkscape:export-filename="C:\Users\Usuario\Pictures\zombie-elf_blank.png"
       inkscape:export-xdpi="90"
       inkscape:export-ydpi="90" />
    <path
       style="fill:none;stroke:#000000;stroke-width:2;stroke-linecap:round;stroke-linejoin:miter;stroke-miterlimit:4;stroke-opacity:1;stroke-dasharray:none"
       d="m 334.28473,350.02837 c 0,0 2.2981,-7.07106 9.8995,-6.54073"
       id="path3909"
       inkscape:connector-curvature="0"
       inkscape:export-filename="C:\Users\Usuario\Pictures\zombie-elf_blank.png"
       inkscape:export-xdpi="90"
       inkscape:export-ydpi="90" />
    <path
       style="fill:none;stroke:#000000;stroke-width:2;stroke-linecap:round;stroke-linejoin:miter;stroke-miterlimit:4;stroke-opacity:1;stroke-dasharray:none"
       d="m 323.8549,379.3733 c 0,0 6.36396,1.59099 8.30851,1.59099"
       id="path3915"
       inkscape:connector-curvature="0"
       inkscape:export-filename="C:\Users\Usuario\Pictures\zombie-elf_blank.png"
       inkscape:export-xdpi="90"
       inkscape:export-ydpi="90" />
  </g>
</svg>
